<?xml version="1.0" encoding="UTF-8"?>
<svg width="894px" height="394px" viewBox="0 0 894 394" version="1.1" xmlns="http://www.w3.org/2000/svg" xmlns:xlink="http://www.w3.org/1999/xlink">
    <!-- Generator: Sketch 42 (36781) - http://www.bohemiancoding.com/sketch -->
    <title>noun_658427_cc</title>
    <desc>Created with Sketch.</desc>
    <defs></defs>
    <g id="Welcome" stroke="none" stroke-width="1" fill="none" fill-rule="evenodd">
        <g id="Desktop-HD" transform="translate(-234.000000, -197.000000)" fill-rule="nonzero" fill="#50E3C2">
            <g id="noun_658427_cc" transform="translate(234.000000, 197.000000)">
                <g id="Group" transform="translate(0.000000, -0.000000)">
                    <path d="M368.632857,387.2182 C355.546095,387.2182 344.892714,375.9505 344.892714,362.1091 C344.892714,348.2539 355.546095,337 368.632857,337 C381.726143,337 392.379524,348.2539 392.379524,362.1091 C392.379524,375.9574 381.726143,387.2182 368.632857,387.2182 Z M368.632857,348.73 C361.658905,348.73 355.98319,354.7261 355.98319,362.1091 C355.98319,369.4783 361.658905,375.4882 368.632857,375.4882 C375.60681,375.4882 381.282524,369.4783 381.282524,362.1091 C381.282524,354.7261 375.60681,348.73 368.632857,348.73 Z" id="Shape"></path>
                    <path d="M47.9967381,97.2182 C34.9034524,97.2182 24.2565952,85.9643 24.2565952,72.1091 C24.2565952,58.2677 34.9034524,47 47.9967381,47 C61.0900238,47 71.7434048,58.2677 71.7434048,72.1091 C71.7434048,85.9643 61.0900238,97.2182 47.9967381,97.2182 Z M47.9967381,58.73 C41.0227857,58.73 35.3470714,64.7399 35.3470714,72.1091 C35.3470714,79.4921 41.0227857,85.4882 47.9967381,85.4882 C54.9706905,85.4882 60.6529286,79.4921 60.6529286,72.1091 C60.6594524,64.7399 54.9706905,58.73 47.9967381,58.73 Z" id="Shape"></path>
                    <path d="M503.076524,170.4034 C489.989762,170.4034 479.342905,159.1357 479.342905,145.2943 C479.342905,131.446 489.989762,120.1783 503.076524,120.1783 C516.16981,120.1783 526.82319,131.446 526.82319,145.2943 C526.816667,159.1426 516.163286,170.4034 503.076524,170.4034 Z M503.076524,131.9083 C496.109095,131.9083 490.426857,137.9113 490.426857,145.2943 C490.426857,152.6704 496.109095,158.6734 503.076524,158.6734 C510.050476,158.6734 515.732714,152.6704 515.732714,145.2943 C515.732714,137.9113 510.050476,131.9083 503.076524,131.9083 Z" id="Shape"></path>
                    <path d="M661.740143,393.1091 C648.646857,393.1091 638,381.8552 638,368 C638,354.1586 648.646857,342.8909 661.740143,342.8909 C674.833429,342.8909 685.480286,354.1586 685.480286,368 C685.480286,381.8552 674.833429,393.1091 661.740143,393.1091 Z M661.740143,354.6209 C654.76619,354.6209 649.090476,360.6308 649.090476,368 C649.090476,375.383 654.76619,381.3791 661.740143,381.3791 C668.714095,381.3791 674.38981,375.383 674.38981,368 C674.396333,360.6308 668.720619,354.6209 661.740143,354.6209 Z" id="Shape"></path>
                    <path d="M725.960085,89.2251 C712.8668,89.2251 702.219943,77.9574 702.219943,64.116 C702.219943,50.2677 712.8668,39 725.960085,39 C739.053371,39 749.700228,50.2677 749.700228,64.116 C749.700228,77.9643 739.053371,89.2251 725.960085,89.2251 Z M725.960085,50.73 C718.986133,50.73 713.310419,56.733 713.310419,64.116 C713.310419,71.4921 718.986133,77.4951 725.960085,77.4951 C732.934038,77.4951 738.609752,71.4921 738.609752,64.116 C738.616276,56.733 732.940562,50.73 725.960085,50.73 Z" id="Shape"></path>
                    <path d="M174.743405,210.2251 C161.654845,210.2251 151,198.9574 151,185.116 C151,171.2677 161.654845,160 174.743405,160 C187.831965,160 198.48681,171.2677 198.48681,185.116 C198.48681,198.9643 187.831965,210.2251 174.743405,210.2251 Z M174.743405,171.73 C167.768494,171.73 162.092,177.733 162.092,185.116 C162.092,192.4921 167.768494,198.4951 174.743405,198.4951 C181.718315,198.4951 187.394809,192.4921 187.394809,185.116 C187.394809,177.733 181.718315,171.73 174.743405,171.73 Z" id="Shape"></path>
                    <path d="M374.892714,54.2833 L333.897095,54.2833 L354.394905,16.7266 L374.892714,54.2833 Z M345.18981,47.3833 L363.593476,47.3833 L354.388381,30.5266 L345.18981,47.3833 Z" id="Shape"></path>
                    <path d="M529.496048,334.3665 L494,312.6867 L529.509095,291 L529.496048,334.3665 Z M507.041095,312.6867 L522.965714,322.4226 L522.978762,302.9577 L507.041095,312.6867 Z" id="Shape"></path>
                    <path d="M405.510857,227.449103 L385,189.906203 L426.008667,189.906203 L405.510857,227.449103 Z M396.305762,196.806203 L405.510857,213.649103 L414.702905,196.806203 L396.305762,196.806203 Z" id="Shape"></path>
                    <path d="M35.4960476,256.3734 L0,234.6867 L35.4960476,213 L35.4960476,256.3734 Z M13.047619,234.6867 L28.9722381,244.4157 L28.9722381,224.9577 L13.047619,234.6867 Z" id="Shape"></path>
                    <path d="M279,278.3665 L279,235 L314.496048,256.6867 L279,278.3665 Z M285.52381,246.9577 L285.52381,266.4157 L301.454952,256.6867 L285.52381,246.9577 Z" id="Shape"></path>
                    <path d="M821.489524,267.3734 L786,245.6798 L821.496048,224 L821.489524,267.3734 Z M799.047619,245.6798 L814.965714,255.4157 L814.972238,235.9577 L799.047619,245.6798 Z" id="Shape"></path>
                    <path d="M669.115857,274.581394 C665.416857,274.581394 661.789619,273.042694 659.121381,270.220594 C655.592,266.494594 654.195905,260.988394 655.461524,255.854794 C655.748572,254.723194 655.455,253.570894 654.685191,252.756694 C653.784905,251.804494 652.584524,251.694094 651.762524,251.935594 C646.915334,253.281094 641.709334,251.804494 638.173429,248.064694 C634.631,244.324894 633.228381,238.811794 634.507048,233.685094 C634.787572,232.560394 634.494,231.401194 633.730715,230.586994 C632.823905,229.648594 631.636572,229.538194 630.808048,229.772794 C625.954334,231.104494 620.748334,229.634794 617.218953,225.915694 C613.683048,222.168994 612.280429,216.655894 613.552572,211.522294 C613.839619,210.397594 613.546048,209.245294 612.776238,208.431094 C611.869429,207.478894 610.662524,207.389194 609.840524,207.616894 C605.032477,208.962394 599.800381,207.485794 596.264477,203.739094 C592.728572,199.999294 591.325953,194.493094 592.604619,189.366394 C593.387477,186.226894 596.453667,184.377694 599.382857,185.191894 C602.344667,186.019894 604.112619,189.228394 603.329762,192.360994 C603.107953,193.230394 603.192762,194.499994 604.093048,195.452194 C604.999857,196.404394 606.187191,196.494094 607.022238,196.273294 C611.902048,194.934694 617.088477,196.425094 620.60481,200.144194 C624.153762,203.897794 625.562905,209.410894 624.271191,214.530694 C623.990667,215.648494 624.284238,216.807694 625.047524,217.621894 C625.954334,218.567194 627.154715,218.670694 627.989762,218.436094 C632.804334,217.104394 638.042953,218.567194 641.56581,222.306994 C645.101715,226.053694 646.504334,231.559894 645.232191,236.679694 C645.010381,237.549094 645.101715,238.825594 646.002,239.777794 C646.90881,240.736894 648.096143,240.819694 648.931191,240.598894 C653.771857,239.239594 658.990905,240.736894 662.513762,244.469794 C666.062715,248.216494 667.465334,253.729594 666.180143,258.856294 C665.971381,259.711894 666.056191,260.988394 666.949953,261.933694 C667.856762,262.885894 669.070191,262.989394 669.872619,262.754794 C672.827905,261.933694 675.868,263.789794 676.650857,266.922394 C677.433715,270.054994 675.672286,273.263494 672.710477,274.091494 C671.536191,274.422694 670.322762,274.581394 669.115857,274.581394 Z" id="Shape"></path>
                    <path d="M885.93311,141.567594 C882.23411,141.567594 878.606871,140.028894 875.938633,137.199894 C872.409252,133.480794 871.013157,127.967694 872.278776,122.847894 C872.565824,121.702494 872.272252,120.557094 871.502443,119.735994 C870.602157,118.790694 869.401776,118.673394 868.579776,118.928694 C863.732586,120.274194 858.526586,118.790694 854.990681,115.050894 C851.448252,111.317994 850.045633,105.804894 851.3243,100.671294 C851.604824,99.5534937 851.311252,98.3942937 850.547967,97.5869937 C849.647681,96.6278937 848.4473,96.5243937 847.6253,96.7658937 C842.765062,98.1113937 837.565586,96.6278937 834.036205,92.9087937 C830.493776,89.1620937 829.091157,83.6489937 830.369824,78.5153937 C830.591633,77.6390937 830.5003,76.3832937 829.59349,75.4310937 C828.686681,74.4788937 827.499348,74.3684937 826.670824,74.6099937 C821.810586,75.9554937 816.604586,74.4650937 813.081729,70.7321937 C809.545824,66.9992937 808.143205,61.4861937 809.421871,56.3663937 C810.204729,53.2268937 813.270919,51.3776937 816.20011,52.1918937 C819.161919,53.0129937 820.929871,56.2214937 820.147014,59.3609937 C819.925205,60.2234937 820.010014,61.4930937 820.9103,62.4452937 C821.810586,63.3905937 822.991395,63.4940937 823.852538,63.2663937 C828.686681,61.9070937 833.899205,63.4043937 837.422062,67.1372937 C840.971014,70.8839937 842.380157,76.3970937 841.088443,81.5306937 C840.873157,82.3931937 840.957967,83.6627937 841.864776,84.6149937 C842.771586,85.5671937 843.971967,85.6637937 844.807014,85.4222937 C849.621586,84.0767937 854.860205,85.5602937 858.383062,89.3000937 C861.918967,93.0467937 863.321586,98.5460937 862.049443,103.665894 C861.827633,104.542194 861.918967,105.811794 862.819252,106.763994 C863.726062,107.723094 864.913395,107.812794 865.748443,107.585094 C870.595633,106.253394 875.808157,107.723094 879.331014,111.455994 C882.879967,115.202694 884.282586,120.715794 882.997395,125.835594 C882.788633,126.698094 882.873443,127.981494 883.767205,128.919894 C884.674014,129.878994 885.874395,129.954894 886.689871,129.740994 C889.645157,128.906094 892.685252,130.762194 893.46811,133.908594 C894.250967,137.054994 892.489538,140.256594 889.527729,141.077694 C888.346919,141.401994 887.13349,141.567594 885.93311,141.567594 Z" id="Shape" transform="translate(851.305405, 96.783797) scale(1, -1) translate(-851.305405, -96.783797) "></path>
                    <path d="M106.370032,392.560842 C105.176175,392.560842 103.96927,392.415942 102.78846,392.077842 C99.8266507,391.270542 98.0521745,388.062042 98.8285078,384.922542 C99.6048412,381.796842 102.631889,379.906242 105.593698,380.734242 C106.676651,381.030942 107.766127,380.734242 108.529413,379.926942 C109.429698,378.967842 109.521032,377.691342 109.305746,376.815042 C108.033603,371.709042 109.436222,366.195942 112.972127,362.463042 C116.508032,358.702542 121.727079,357.219042 126.567746,358.592142 C127.637651,358.888842 128.727127,358.564542 129.490413,357.771042 C130.390698,356.811942 130.475508,355.549242 130.260222,354.686742 C128.994603,349.511742 130.403746,344.012442 133.933127,340.293342 C137.44946,336.560442 142.661984,335.076942 147.509175,336.422442 C148.344222,336.650142 149.538079,336.546642 150.451413,335.587542 C151.345175,334.642242 151.436508,333.379542 151.221222,332.517042 C149.942555,327.383442 151.345175,321.870342 154.881079,318.137442 C158.41046,314.390742 163.629508,312.893442 168.470175,314.259642 C169.311746,314.501142 170.499079,314.404542 171.392841,313.452342 C172.293127,312.493242 172.38446,311.230542 172.169175,310.368042 C171.386317,307.228542 173.147746,304.020042 176.109555,303.198942 C179.071365,302.364042 182.104936,304.233942 182.887794,307.366542 C184.16646,312.486342 182.770365,317.999442 179.23446,321.746142 C175.692032,325.492842 170.486032,326.976342 165.638841,325.603242 C164.595032,325.334142 163.472936,325.644642 162.716175,326.438142 C161.809365,327.397242 161.718032,328.659942 161.933317,329.522442 C163.211984,334.642242 161.815889,340.155342 158.286508,343.902042 C154.737555,347.648742 149.525032,349.159842 144.677841,347.772942 C143.620984,347.503842 142.531508,347.786742 141.768222,348.594042 C140.854889,349.553142 140.770079,350.829642 140.985365,351.719742 C142.257508,356.811942 140.861413,362.325042 137.332032,366.071742 C133.802651,369.804642 128.590127,371.301942 123.742936,369.942642 C122.673032,369.645942 121.563984,369.956442 120.813746,370.763742 C119.906936,371.722842 119.815603,372.985542 120.030889,373.848042 C121.296508,378.995442 119.893889,384.494742 116.371032,388.227642 C113.709317,391.035942 110.082079,392.560842 106.370032,392.560842 Z" id="Shape" transform="translate(141.000000, 347.780421) scale(-1, 1) translate(-141.000000, -347.780421) "></path>
                    <path d="M285.980174,146.596172 C282.27465,146.596172 278.640888,145.050572 275.97265,142.221572 C272.449793,138.495572 271.053698,132.989372 272.325841,127.855772 C272.606364,126.731072 272.312793,125.578772 271.549507,124.764572 C270.642698,123.812372 269.435793,123.708872 268.620317,123.943472 C263.760079,125.282072 258.554079,123.798572 255.031222,120.065672 C251.495317,116.332772 250.092698,110.819672 251.371364,105.692972 C251.651888,104.568272 251.358317,103.409072 250.588507,102.594872 C249.694745,101.649572 248.494364,101.546072 247.665841,101.780672 C242.799079,103.126172 237.606126,101.642672 234.076745,97.9097724 C230.540841,94.1699724 229.138222,88.6637724 230.410364,83.5301724 C230.697412,82.3985724 230.403841,81.2531724 229.634031,80.4389724 C228.727222,79.4798724 227.533364,79.3832724 226.704841,79.6178724 C221.851126,80.9633724 216.645126,79.4798724 213.115745,75.7469724 C209.586364,72.0071724 208.190269,66.5009724 209.462412,61.3742724 C210.245269,58.2485724 213.252745,56.3717724 216.24065,57.1928724 C219.20246,58.0208724 220.970412,61.2224724 220.194079,64.3619724 C219.913555,65.4935724 220.200603,66.6527724 220.970412,67.4600724 C221.864174,68.4053724 223.064555,68.4950724 223.899603,68.2742724 C228.746793,66.9425724 233.952793,68.4191724 237.482174,72.1451724 C241.031126,75.8918724 242.433745,81.4049724 241.142031,86.5385724 C240.868031,87.6494724 241.155079,88.8086724 241.924888,89.6159724 C242.825174,90.5681724 244.038603,90.6509724 244.860603,90.4370724 C249.707793,89.0915724 254.913793,90.5819724 258.443174,94.3079724 C261.979079,98.0546724 263.381698,103.560872 262.103031,108.680672 C261.887745,109.550072 261.979079,110.819672 262.879364,111.771872 C263.786174,112.737872 264.986555,112.834472 265.815079,112.592972 C270.675317,111.233672 275.874793,112.730972 279.39765,116.470772 C282.933555,120.203672 284.336174,125.709872 283.064031,130.836572 C282.848745,131.705972 282.927031,132.975572 283.820793,133.920872 C284.734126,134.879972 285.947555,134.976572 286.749984,134.748872 C289.705269,133.934672 292.745364,135.783872 293.528222,138.916472 C294.311079,142.049072 292.54965,145.257572 289.587841,146.085572 C288.400507,146.430572 287.187079,146.596172 285.980174,146.596172 Z" id="Shape"></path>
                    <path d="M477.203095,90.0253 C476.002714,90.0253 474.802333,89.8666 473.621524,89.5354 C470.659714,88.7143 468.878714,85.5127 469.661571,82.3732 C470.431381,79.2406 473.504095,77.3707 476.426762,78.1849 C477.522762,78.4816 478.605714,78.178 479.369,77.3638 C480.262762,76.4185 480.347571,75.142 480.132286,74.2657 C478.860143,69.139 480.269286,63.6328 483.798667,59.8999 C487.341095,56.1463 492.566667,54.6697 497.413857,56.0359 C498.46419,56.3257 499.553667,56.0152 500.316952,55.201 C501.217238,54.2488 501.295524,52.9792 501.080238,52.1098 C499.814619,46.9555 501.223762,41.4562 504.753143,37.7302 C508.295571,33.9904 513.501571,32.5069 518.348762,33.8662 C519.15119,34.0939 520.371143,34.0042 521.264905,33.0451 C522.171714,32.086 522.256524,30.8164 522.041238,29.9401 C520.769095,24.8065 522.178238,19.3003 525.707619,15.5674 C529.243524,11.8207 534.488667,10.3372 539.303238,11.7034 C540.11219,11.9173 541.325619,11.8276 542.212857,10.8823 C543.119667,9.9232 543.211,8.6536 542.98919,7.7773 C542.212857,4.6447 543.974286,1.4362 546.936095,0.6082 C549.852238,-0.2267 552.931476,1.6432 553.714333,4.7827 C554.993,9.9232 553.583857,15.4363 550.047952,19.1761 C546.525095,22.9021 541.293,24.3649 536.478429,23.0332 C535.395476,22.7296 534.319048,23.0401 533.542714,23.8543 C532.779429,24.6616 532.492381,25.8208 532.772905,26.9524 C534.045048,32.0929 532.635905,37.5991 529.106524,41.3251 C525.59019,45.058 520.377667,46.5484 515.517429,45.196 C514.454048,44.8855 513.364571,45.2029 512.588238,46.0171 C511.681429,46.9762 511.596619,48.2527 511.805381,49.129 C513.084048,54.2419 511.681429,59.7481 508.145524,63.4879 C504.616143,67.2277 499.403619,68.7043 494.562952,67.3657 C493.493048,67.0759 492.390524,67.3795 491.620714,68.1868 C490.720429,69.139 490.635619,70.4086 490.850905,71.2849 C492.116524,76.4185 490.720429,81.9247 487.197571,85.6576 C484.535857,88.4866 480.915143,90.0253 477.203095,90.0253 Z" id="Shape"></path>
                </g>
            </g>
        </g>
    </g>
</svg>