<?xml version="1.0" encoding="UTF-8"?>
<svg width="76px" height="78px" viewBox="0 0 76 78" version="1.1" xmlns="http://www.w3.org/2000/svg" xmlns:xlink="http://www.w3.org/1999/xlink">
    <!-- Generator: Sketch 42 (36781) - http://www.bohemiancoding.com/sketch -->
    <title>noun_644589_cc</title>
    <desc>Created with Sketch.</desc>
    <defs></defs>
    <g id="Page-1" stroke="none" stroke-width="1" fill="none" fill-rule="evenodd">
        <g id="noun_644589_cc" transform="translate(-1.000000, 0.000000)" fill-rule="nonzero" fill="#F2F2F2">
            <g id="Group">
                <path d="M76.591,36.511 L72.14,33.925 C71.913,33.791 71.634,33.774 71.39,33.874 C71.145,33.975 70.961,34.184 70.893,34.438 L70.497,35.907 L67.002,33.878 C66.595,33.642 66.076,33.781 65.84,34.186 C65.605,34.592 65.742,35.112 66.149,35.348 L70.602,37.933 C70.83,38.066 71.108,38.085 71.352,37.984 C71.597,37.883 71.781,37.674 71.849,37.42 L72.245,35.952 L75.738,37.981 C75.872,38.059 76.019,38.096 76.164,38.096 C76.457,38.096 76.742,37.945 76.9,37.673 C77.135,37.267 76.997,36.747 76.591,36.511 Z" id="Shape"></path>
                <path d="M52.725,36.916 C52.751,36.653 52.655,36.393 52.462,36.211 L51.355,35.169 L54.793,33.044 C55.192,32.797 55.315,32.273 55.068,31.874 C54.821,31.475 54.297,31.351 53.898,31.598 L49.518,34.305 C49.293,34.444 49.146,34.68 49.12,34.943 C49.094,35.206 49.19,35.466 49.383,35.648 L50.49,36.69 L47.053,38.812 C46.654,39.059 46.53,39.583 46.776,39.982 C46.937,40.243 47.215,40.385 47.501,40.385 C47.653,40.385 47.808,40.344 47.946,40.258 L52.326,37.553 C52.551,37.415 52.698,37.179 52.725,36.916 Z" id="Shape"></path>
                <path d="M34.952,55.13 C35.154,55.13 35.357,55.059 35.519,54.913 C35.868,54.599 35.897,54.061 35.583,53.712 L32.144,49.882 C31.968,49.686 31.712,49.578 31.445,49.603 C31.181,49.624 30.942,49.767 30.798,49.989 L29.97,51.262 L27.27,48.256 C26.957,47.908 26.418,47.878 26.07,48.192 C25.72,48.506 25.692,49.044 26.006,49.393 L29.446,53.223 C29.622,53.419 29.882,53.524 30.144,53.502 C30.408,53.481 30.646,53.339 30.79,53.118 L31.619,51.843 L34.318,54.849 C34.487,55.035 34.719,55.13 34.952,55.13 Z" id="Shape"></path>
                <path d="M39.96,13.986 L36.317,17.623 C36.129,17.811 36.04,18.074 36.075,18.337 C36.11,18.6 36.265,18.831 36.495,18.962 L37.808,19.72 L34.949,22.575 C34.617,22.907 34.616,23.445 34.948,23.777 C35.114,23.944 35.332,24.027 35.55,24.027 C35.767,24.027 35.985,23.944 36.151,23.778 L39.794,20.139 C39.981,19.952 40.071,19.689 40.037,19.427 C40.003,19.165 39.848,18.934 39.619,18.802 L38.304,18.042 L41.162,15.188 C41.494,14.856 41.495,14.318 41.163,13.986 C40.831,13.654 40.293,13.655 39.96,13.986 Z" id="Shape"></path>
                <path d="M19.313,5.342 C19.177,5.115 18.943,4.965 18.68,4.935 C18.413,4.905 18.156,4.999 17.972,5.19 L16.917,6.284 L14.835,2.822 C14.593,2.42 14.071,2.289 13.668,2.531 C13.266,2.773 13.136,3.295 13.377,3.698 L16.029,8.11 C16.165,8.336 16.399,8.486 16.661,8.517 C16.925,8.547 17.185,8.454 17.369,8.264 L18.425,7.169 L20.508,10.631 C20.668,10.896 20.949,11.043 21.237,11.043 C21.386,11.043 21.537,11.004 21.674,10.921 C22.076,10.679 22.206,10.156 21.965,9.754 L19.313,5.342 Z" id="Shape"></path>
                <path d="M67.179,64.599 L62.05,64.144 C61.791,64.126 61.529,64.221 61.349,64.415 C61.17,64.609 61.092,64.877 61.138,65.137 L61.4,66.633 L57.377,66.275 C56.919,66.238 56.496,66.579 56.455,67.046 C56.413,67.514 56.759,67.926 57.226,67.968 L62.353,68.425 C62.378,68.427 62.403,68.428 62.428,68.428 C62.664,68.428 62.892,68.329 63.054,68.154 C63.233,67.96 63.311,67.693 63.265,67.432 L63.003,65.935 L67.028,66.292 C67.493,66.326 67.909,65.989 67.95,65.521 C67.991,65.053 67.646,64.64 67.179,64.599 Z" id="Shape"></path>
                <path d="M9.429,60.605 L5.101,63.394 C4.879,63.538 4.736,63.776 4.714,64.04 C4.693,64.303 4.795,64.561 4.99,64.739 L6.115,65.759 L2.719,67.946 C2.324,68.201 2.211,68.726 2.465,69.121 C2.628,69.374 2.901,69.512 3.181,69.512 C3.338,69.512 3.498,69.468 3.64,69.376 L7.968,66.589 C8.191,66.445 8.334,66.206 8.355,65.942 C8.376,65.678 8.272,65.419 8.075,65.242 L6.952,64.225 L10.349,62.037 C10.744,61.782 10.857,61.257 10.603,60.862 C10.35,60.465 9.824,60.351 9.429,60.605 Z" id="Shape"></path>
                <path d="M37.613,70.478 L36.108,70.387 L37.39,66.555 C37.539,66.11 37.299,65.628 36.853,65.48 C36.406,65.328 35.926,65.571 35.777,66.016 L34.144,70.899 C34.06,71.15 34.098,71.424 34.246,71.644 C34.394,71.863 34.635,72 34.899,72.017 L36.416,72.109 L35.134,75.94 C34.985,76.385 35.225,76.867 35.67,77.015 C35.76,77.045 35.851,77.06 35.94,77.06 C36.295,77.06 36.627,76.834 36.746,76.479 L38.38,71.596 C38.464,71.344 38.426,71.066 38.275,70.846 C38.125,70.626 37.879,70.489 37.613,70.478 Z" id="Shape"></path>
                <path d="M4.188,23.806 L4.436,28.949 C4.449,29.213 4.583,29.456 4.801,29.607 C5.018,29.757 5.294,29.797 5.545,29.718 L6.991,29.254 L7.186,33.289 C7.208,33.744 7.584,34.098 8.035,34.098 C8.049,34.098 8.062,34.098 8.077,34.097 C8.546,34.074 8.908,33.676 8.885,33.207 L8.636,28.065 C8.623,27.801 8.489,27.558 8.271,27.408 C8.054,27.257 7.778,27.216 7.528,27.297 L6.08,27.76 L5.886,23.724 C5.863,23.255 5.472,22.895 4.996,22.916 C4.527,22.939 4.165,23.337 4.188,23.806 Z" id="Shape"></path>
                <path d="M63.33,10.503 C63.433,10.503 63.537,10.484 63.639,10.445 L68.436,8.577 C68.682,8.481 68.871,8.276 68.944,8.021 C69.017,7.767 68.968,7.493 68.811,7.28 L67.913,6.058 L71.679,4.591 C72.117,4.421 72.333,3.928 72.162,3.49 C71.992,3.053 71.502,2.838 71.061,3.007 L66.262,4.876 C66.016,4.972 65.828,5.177 65.754,5.431 C65.681,5.685 65.729,5.958 65.886,6.171 L66.785,7.394 L63.021,8.86 C62.583,9.03 62.367,9.523 62.538,9.961 C62.669,10.297 62.99,10.503 63.33,10.503 Z" id="Shape"></path>
                <path d="M54.252,51.223 L52.484,52.794 C52.132,53.106 52.101,53.644 52.413,53.994 C52.581,54.183 52.814,54.279 53.049,54.279 C53.25,54.279 53.451,54.209 53.613,54.065 L55.381,52.494 C55.733,52.182 55.764,51.644 55.452,51.294 C55.141,50.942 54.604,50.912 54.252,51.223 Z" id="Shape"></path>
                <path d="M57.08,50.981 L58.848,49.41 C59.2,49.098 59.231,48.56 58.919,48.21 C58.607,47.857 58.069,47.828 57.719,48.139 L55.951,49.71 C55.599,50.022 55.568,50.56 55.88,50.91 C56.048,51.099 56.281,51.195 56.516,51.195 C56.717,51.195 56.918,51.125 57.08,50.981 Z" id="Shape"></path>
                <path d="M15.298,70.465 L12.985,69.973 C12.526,69.871 12.074,70.168 11.977,70.627 C11.879,71.086 12.172,71.537 12.632,71.635 L14.945,72.127 C15.005,72.14 15.064,72.147 15.123,72.147 C15.516,72.147 15.869,71.873 15.954,71.473 C16.05,71.014 15.757,70.562 15.298,70.465 Z" id="Shape"></path>
                <path d="M19.837,71.429 L17.524,70.937 C17.064,70.838 16.613,71.132 16.516,71.591 C16.419,72.05 16.711,72.501 17.171,72.599 L19.484,73.091 C19.544,73.104 19.603,73.111 19.662,73.111 C20.055,73.111 20.408,72.837 20.493,72.437 C20.589,71.978 20.296,71.526 19.837,71.429 Z" id="Shape"></path>
                <path d="M73.662,71.787 C73.245,71.564 72.732,71.724 72.513,72.138 L71.403,74.226 C71.182,74.641 71.34,75.156 71.754,75.375 C71.882,75.443 72.018,75.476 72.152,75.476 C72.457,75.476 72.751,75.312 72.903,75.025 L74.013,72.937 C74.233,72.521 74.076,72.007 73.662,71.787 Z" id="Shape"></path>
                <path d="M75.839,67.688 C75.422,67.468 74.909,67.626 74.689,68.04 L73.579,70.129 C73.359,70.544 73.517,71.059 73.931,71.279 C74.059,71.346 74.195,71.379 74.329,71.379 C74.634,71.379 74.928,71.215 75.081,70.928 L76.191,68.839 C76.41,68.423 76.253,67.908 75.839,67.688 Z" id="Shape"></path>
                <path d="M28.135,34.624 C28.388,34.624 28.639,34.511 28.806,34.295 C29.094,33.924 29.027,33.391 28.657,33.103 L26.789,31.651 C26.419,31.363 25.885,31.429 25.597,31.8 C25.309,32.171 25.376,32.704 25.746,32.992 L27.614,34.444 C27.769,34.565 27.953,34.624 28.135,34.624 Z" id="Shape"></path>
                <path d="M31.279,37.291 C31.434,37.412 31.617,37.47 31.8,37.47 C32.053,37.47 32.304,37.357 32.471,37.141 C32.759,36.77 32.692,36.236 32.322,35.949 L30.455,34.498 C30.085,34.21 29.551,34.276 29.263,34.647 C28.975,35.018 29.042,35.552 29.412,35.839 L31.279,37.291 Z" id="Shape"></path>
                <path d="M14.721,46.802 C15.148,46.802 15.516,46.481 15.565,46.046 L15.827,43.695 C15.879,43.229 15.543,42.808 15.077,42.757 C14.604,42.696 14.19,43.042 14.138,43.508 L13.876,45.859 C13.824,46.325 14.16,46.746 14.626,46.797 C14.658,46.801 14.689,46.802 14.721,46.802 Z" id="Shape"></path>
                <path d="M15.588,38.145 C15.118,38.097 14.701,38.429 14.649,38.895 L14.387,41.246 C14.335,41.713 14.671,42.133 15.137,42.184 C15.169,42.188 15.201,42.19 15.232,42.19 C15.659,42.19 16.027,41.869 16.076,41.434 L16.338,39.083 C16.391,38.617 16.054,38.197 15.588,38.145 Z" id="Shape"></path>
                <path d="M4.044,12.91 C4.385,12.91 4.707,12.703 4.837,12.365 C5.005,11.927 4.787,11.435 4.349,11.266 L2.141,10.416 C1.705,10.249 1.211,10.466 1.042,10.904 C0.874,11.342 1.092,11.834 1.53,12.003 L3.738,12.853 C3.839,12.892 3.942,12.91 4.044,12.91 Z" id="Shape"></path>
                <path d="M5.862,13.669 L8.069,14.519 C8.17,14.558 8.273,14.576 8.375,14.576 C8.716,14.576 9.038,14.369 9.168,14.032 C9.336,13.594 9.118,13.102 8.68,12.933 L6.473,12.083 C6.036,11.915 5.543,12.133 5.374,12.571 C5.206,13.009 5.424,13.5 5.862,13.669 Z" id="Shape"></path>
                <path d="M50.57,19.794 L52.724,20.773 C52.838,20.825 52.957,20.849 53.075,20.849 C53.398,20.849 53.708,20.664 53.849,20.351 C54.043,19.923 53.855,19.419 53.427,19.225 L51.273,18.246 C50.842,18.05 50.34,18.241 50.148,18.668 C49.954,19.096 50.143,19.6 50.57,19.794 Z" id="Shape"></path>
                <path d="M54.796,21.713 L56.949,22.692 C57.063,22.744 57.182,22.768 57.3,22.768 C57.623,22.768 57.933,22.583 58.074,22.269 C58.268,21.842 58.08,21.338 57.652,21.144 L55.499,20.165 C55.069,19.97 54.566,20.16 54.374,20.587 C54.18,21.015 54.368,21.519 54.796,21.713 Z" id="Shape"></path>
                <path d="M44.258,3.388 L43.047,1.355 C42.808,0.953 42.285,0.82 41.882,1.06 C41.479,1.301 41.346,1.822 41.586,2.226 L42.797,4.259 C42.956,4.526 43.238,4.674 43.528,4.674 C43.675,4.674 43.826,4.635 43.962,4.554 C44.365,4.312 44.498,3.791 44.258,3.388 Z" id="Shape"></path>
                <path d="M46.636,7.372 L45.425,5.34 C45.186,4.938 44.666,4.803 44.259,5.045 C43.856,5.285 43.724,5.807 43.964,6.21 L45.175,8.242 C45.334,8.509 45.616,8.657 45.906,8.657 C46.053,8.657 46.204,8.618 46.341,8.537 C46.744,8.297 46.876,7.775 46.636,7.372 Z" id="Shape"></path>
            </g>
        </g>
    </g>
</svg>