<?xml version="1.0" encoding="UTF-8"?>
<svg width="79px" height="93px" viewBox="0 0 79 93" version="1.1" xmlns="http://www.w3.org/2000/svg" xmlns:xlink="http://www.w3.org/1999/xlink">
    <!-- Generator: Sketch 42 (36781) - http://www.bohemiancoding.com/sketch -->
    <title>noun_625902_cc</title>
    <desc>Created with Sketch.</desc>
    <defs></defs>
    <g id="Page-1" stroke="none" stroke-width="1" fill="none" fill-rule="evenodd">
        <g id="noun_625902_cc" fill-rule="nonzero" fill="#F2F2F2">
            <path d="M37.626,92.847 C37.131,92.847 36.628,92.738 36.133,92.524 L24.027,87.289 C20.249,85.654 16.67,81.569 21.069,71.396 C21.786,69.782 19.518,68.383 15.446,66.049 L15.14,65.873 C12.125,64.212 10.857,61.572 10.617,59.196 C9.061,60.397 8.779,62.395 8.834,65.647 C8.89,68.925 9.772,72.245 10.625,75.455 L10.925,76.589 C11.256,77.85 11.043,79.056 10.325,79.986 C9.479,81.082 8.006,81.696 6.517,81.584 C4.366,81.413 3.046,79.4 2.529,77.573 C0.769,71.366 -0.885,64.247 1.771,58.319 C3.314,54.873 7.703,51.102 11.981,50.657 C13.623,47.95 16.692,45.886 21.34,44.357 C21.556,44.282 44.241,36.476 46.285,35.699 C46.798,35.504 46.77,33.18 46.751,31.483 C46.726,29.306 46.694,26.596 47.254,23.775 C48.889,14.372 54.997,8.805 63.457,9.011 C63.506,9.009 63.553,9.012 63.591,9.016 C64.582,9.077 65.173,9.118 65.77,9.193 L72.229,0.901 C72.526,0.521 73.05,0.405 73.479,0.629 C73.907,0.851 74.116,1.347 73.974,1.808 L70.946,11.721 C72.11,12.633 72.611,14.05 73.061,15.324 C73.35,16.14 73.623,16.91 74.033,17.508 L74.339,17.952 C75.637,19.832 77.109,21.962 77.52,24.295 C77.702,25.328 77.426,26.372 76.764,27.161 C75.428,28.751 72.811,28.902 70.702,27.367 C68.79,26.034 67.236,25.352 66.098,25.352 C65.464,25.352 64.955,25.557 64.495,25.996 C63.56,26.888 64.148,29.547 64.975,31.052 L65.744,31.939 C68.619,35.241 71.101,38.093 70.842,43.176 C70.676,46.443 70.315,48.679 69.02,50.758 C71.71,50.681 73.963,51.292 75.684,52.596 C77.826,54.222 78.821,56.669 78.419,59.314 C77.731,63.897 73.036,66.169 69.023,67.637 C66.115,68.503 64.414,66.961 64.025,65.428 C63.687,64.094 64.277,62.755 65.493,62.096 C66.308,61.556 67.33,61.253 68.317,60.959 C69.753,60.533 70.992,60.165 71.57,59.074 C71.642,58.938 71.667,58.805 71.549,58.601 C71.273,58.119 70.488,57.7 69.801,57.668 C68.648,57.604 67.803,57.993 66.784,58.437 C65.754,58.885 64.585,59.393 63.005,59.507 C62.815,59.521 62.546,59.536 62.207,59.556 C42.316,60.709 35.987,65.398 34.18,69.128 C34.134,69.225 34.072,69.313 33.997,69.39 C33.593,69.947 32.278,72.681 32.511,73.661 C32.626,74.139 33.901,74.588 34.587,74.83 C34.891,74.937 35.17,75.037 35.399,75.135 L41.909,77.953 C42.229,78.092 42.577,78.221 42.931,78.353 C43.841,78.693 44.871,79.078 45.696,79.69 C46.94,80.614 47.413,81.982 46.96,83.35 C46.473,84.826 45.043,85.855 43.484,85.855 C42.986,85.855 42.494,85.751 42.021,85.547 L37.012,83.379 C36.363,83.098 35.631,82.824 34.863,82.536 C32.212,81.542 29.033,80.35 27.196,78.134 C26.777,79.046 26.346,80.17 26.544,80.711 C26.57,80.782 26.609,80.857 26.778,80.93 L38.884,86.167 C40.488,86.861 41.305,88.372 40.964,90.017 C40.624,91.656 39.221,92.847 37.626,92.847 Z M11.62,56.525 C11.839,56.525 12.056,56.597 12.234,56.736 C12.509,56.951 12.653,57.293 12.613,57.64 C12.497,58.645 12.407,62.083 16.119,64.129 L16.44,64.313 C20.701,66.755 24.381,68.866 22.9,72.199 C19.898,79.139 20.543,83.601 24.819,85.452 L36.926,90.687 C37.985,91.145 38.839,90.407 39.004,89.61 C39.073,89.276 39.123,88.45 38.088,88.003 L25.982,82.766 C25.346,82.491 24.891,82.018 24.664,81.399 C24.097,79.849 25.1,77.829 25.832,76.354 C25.967,76.083 26.086,75.843 26.168,75.654 C26.328,75.285 26.671,75.036 27.095,75.051 C27.497,75.055 27.858,75.299 28.011,75.671 C29.059,78.226 32.514,79.521 35.563,80.663 C36.364,80.964 37.127,81.25 37.804,81.543 L42.813,83.711 C43.034,83.807 43.259,83.855 43.482,83.855 C44.263,83.855 44.878,83.272 45.059,82.722 C45.235,82.19 45.042,81.697 44.502,81.295 C43.905,80.853 43.053,80.534 42.229,80.226 C41.842,80.081 41.463,79.94 41.113,79.788 L34.603,76.97 C34.414,76.889 34.176,76.806 33.919,76.715 C32.658,76.271 30.932,75.662 30.563,74.125 C30.11,72.223 31.809,69.096 32.399,68.213 C35.393,62.112 45.382,58.527 62.089,57.56 C62.415,57.541 62.675,57.526 62.858,57.513 C64.098,57.423 65.014,57.025 65.984,56.603 C67.12,56.109 68.294,55.6 69.891,55.67 C71.272,55.733 72.666,56.53 73.283,57.608 C73.725,58.382 73.744,59.235 73.335,60.008 C72.363,61.841 70.516,62.39 68.885,62.875 C67.996,63.139 67.157,63.388 66.516,63.809 C65.827,64.187 65.918,64.765 65.961,64.935 C66.078,65.396 66.528,65.888 67.442,65.888 C67.734,65.888 68.053,65.837 68.392,65.737 C73.524,63.859 76.025,61.779 76.439,59.013 C76.727,57.114 76.012,55.356 74.477,54.19 C72.718,52.859 70.117,52.439 66.975,52.976 C66.707,53.021 66.435,52.958 66.217,52.798 C65.998,52.639 65.854,52.399 65.816,52.131 C65.773,51.83 65.868,51.508 66.076,51.286 C68.214,49.014 68.642,47.004 68.842,43.072 C69.061,38.795 67.036,36.469 64.234,33.25 L63.393,32.279 C63.352,32.231 63.315,32.179 63.284,32.124 C62.35,30.49 61.079,26.489 63.113,24.548 C63.945,23.754 64.949,23.351 66.096,23.351 C67.695,23.351 69.527,24.109 71.86,25.737 C73.147,26.674 74.557,26.674 75.229,25.874 C75.514,25.534 75.627,25.096 75.547,24.641 C75.212,22.738 73.872,20.799 72.691,19.088 L72.381,18.639 C71.822,17.825 71.492,16.892 71.174,15.991 C70.706,14.67 70.303,13.529 69.329,13.059 C68.885,12.845 68.663,12.338 68.808,11.867 L70.477,6.403 L66.991,10.88 C66.767,11.167 66.406,11.311 66.047,11.253 C65.317,11.138 64.818,11.096 63.48,11.013 C63.295,11.009 63.155,11.007 63.014,11.007 C55.807,11.007 50.65,15.917 49.219,24.142 C48.696,26.783 48.726,29.377 48.75,31.461 C48.786,34.606 48.812,36.878 46.995,37.57 C44.922,38.359 22.913,45.932 21.977,46.255 C17.554,47.709 14.775,49.615 13.47,52.086 C13.302,52.403 12.977,52.607 12.619,52.618 C8.968,52.739 4.933,56.152 3.596,59.139 C1.214,64.453 2.79,71.159 4.453,77.028 C4.772,78.153 5.546,79.5 6.676,79.59 C7.488,79.659 8.317,79.316 8.742,78.765 C9.082,78.325 9.165,77.763 8.991,77.097 L8.693,75.969 C7.809,72.643 6.895,69.204 6.835,65.683 C6.769,61.804 7.058,58.19 11.266,56.591 C11.38,56.547 11.5,56.525 11.62,56.525 Z" id="Shape"></path>
            <circle id="Oval" cx="68.167" cy="17.5" r="1.5"></circle>
        </g>
    </g>
</svg>