<?xml version="1.0" encoding="UTF-8"?>
<svg width="71px" height="62px" viewBox="0 0 71 62" version="1.1" xmlns="http://www.w3.org/2000/svg" xmlns:xlink="http://www.w3.org/1999/xlink">
    <!-- Generator: Sketch 42 (36781) - http://www.bohemiancoding.com/sketch -->
    <title>noun_546329_cc</title>
    <desc>Created with Sketch.</desc>
    <defs></defs>
    <g id="Page-1" stroke="none" stroke-width="1" fill="none" fill-rule="evenodd">
        <g id="noun_546329_cc" fill-rule="nonzero" fill="#50E3C2">
            <g id="Group">
                <path d="M49.458,23.424 C51.407,23.424 53.173,22.653 54.478,21.403 C55.207,24.149 57.703,26.175 60.677,26.175 C64.222,26.175 67.097,23.3 67.097,19.755 C67.097,18.831 66.898,17.955 66.547,17.161 C68.076,15.345 69.001,13.002 69.001,10.441 C69.001,4.674 64.327,0 58.56,0 C53.285,0 48.932,3.917 48.228,9.001 C44.802,9.586 42.191,12.563 42.191,16.156 C42.191,20.171 45.446,23.424 49.458,23.424 Z" id="Shape"></path>
                <path d="M66.263,44.971 C65.945,44.848 65.622,44.761 65.298,44.694 C66.652,39.844 64.128,34.67 59.333,32.816 C54.236,30.846 48.505,33.378 46.533,38.476 C45.872,40.184 45.728,41.96 46.006,43.646 C43.196,43.499 40.486,45.143 39.417,47.911 C38.083,51.358 39.798,55.232 43.244,56.564 C45.28,57.352 47.46,57.071 49.182,56.003 C49.632,58.115 51.102,59.966 53.266,60.803 C56.677,62.122 60.507,60.426 61.827,57.014 C61.906,56.811 61.973,56.606 62.029,56.4 C65.128,57.5 68.557,55.943 69.752,52.855 C70.964,49.715 69.404,46.185 66.263,44.971 Z" id="Shape"></path>
                <path d="M27.94,21.521 C27.784,21.521 27.632,21.534 27.479,21.544 C27.494,21.301 27.516,21.06 27.516,20.814 C27.516,14.229 22.178,8.89 15.593,8.89 C9.008,8.89 3.669,14.229 3.669,20.814 C3.669,22.461 4.003,24.03 4.607,25.457 C1.897,26.625 0,29.317 0,32.455 C0,36.664 3.411,40.076 7.621,40.076 C9.438,40.076 11.105,39.437 12.415,38.376 C13.437,41.335 16.239,43.463 19.546,43.463 C23.715,43.463 27.095,40.083 27.095,35.913 C27.095,35.554 27.061,35.202 27.012,34.854 C27.316,34.897 27.624,34.926 27.94,34.926 C31.643,34.926 34.642,31.925 34.642,28.223 C34.643,24.522 31.643,21.521 27.94,21.521 Z" id="Shape"></path>
            </g>
        </g>
    </g>
</svg>